<svg id="Layer_1" data-name="Layer 1" xmlns="http://www.w3.org/2000/svg" viewBox="0 0 500 500"><defs><style>.cls-1{fill:#fff;}</style></defs><title>TechRace_logo</title><polygon class="cls-1" points="198.11 262.54 193.06 291.23 184.98 291.23 195.75 230.04 203.84 230.04 199.53 254.51 219.96 254.51 227.86 209.65 178.91 209.65 160.96 311.63 209.91 311.63 218.41 262.54 198.11 262.54"/><polygon class="cls-1" points="398.76 283.75 404.94 248.11 390.2 248.11 386.53 268.93 380.66 268.93 388.48 224.51 394.35 224.51 391.23 242.28 406.06 242.28 411.8 209.7 376.25 209.7 363.22 283.75 398.76 283.75"/><polygon class="cls-1" points="88.17 238.06 78.83 291.23 70.77 291.23 81.55 230.04 109.98 230.04 113.64 209.65 85.14 209.65 87.3 197.41 66.86 197.41 64.7 209.69 50.59 209.65 46.74 230.04 61.11 230.04 46.74 311.63 95.69 311.63 108.6 238.06 88.17 238.06"/><path class="cls-1" d="M157.83,283.07l12.92-73.44h-49l-17.94,102h49l3.59-20.4H127.87l1.57-8.16Zm-19.19-53h8.1l-5.6,32.63H132.9Z"/><polygon class="cls-1" points="284.97 209.65 256.47 209.65 258.63 197.41 260.25 188.23 239.75 188.23 238.2 197.41 218.07 311.63 238.5 311.63 252.74 230.04 260.95 230.04 246.73 311.63 267.02 311.63 435.24 311.63 438.62 292.52 270.38 292.52 284.97 209.65"/><path class="cls-1" d="M331.14,230.43l-9.38,53.32h35.53l13-74.05H334.79l-2.71,14.81h20.81l-1,5.92Zm13.93,38.49H339.2l4.05-23.69h6Z"/><path class="cls-1" d="M443.89,263l9.37-53.31H417.72l-13,74.05h35.54l2.61-14.82H422.12l1.14-5.92ZM430,224.52h5.87l-4,23.7h-6Z"/><path class="cls-1" d="M294.88,283.75l2.85-14.82,1.15-5.92h1.24l1.26,20.74H316L314.71,263h4.77l9.38-53.31H293.32l-13,74.05Zm10.67-59.26h5.87l-4.05,23.7h-6Z"/></svg>